<svg xmlns="http://www.w3.org/2000/svg" width="19.026" height="17.667" viewBox="0 0 19.026 17.667">
  <path id="Icon_ionic-ios-star" data-name="Icon ionic-ios-star" d="M20.554,9.49H14.307l-1.9-5.665a.688.688,0,0,0-1.291,0L9.219,9.49H2.929a.681.681,0,0,0-.679.679.5.5,0,0,0,.013.115.653.653,0,0,0,.285.48l5.134,3.618L5.711,20.112a.681.681,0,0,0,.234.764.657.657,0,0,0,.382.166.833.833,0,0,0,.425-.153l5.011-3.572,5.011,3.572a.8.8,0,0,0,.425.153.61.61,0,0,0,.378-.166.673.673,0,0,0,.234-.764L15.84,14.383l5.092-3.652.123-.106a.712.712,0,0,0,.221-.454A.719.719,0,0,0,20.554,9.49Z" transform="translate(-2.25 -3.375)" fill="#ff4b04"/>
</svg>
